<svg width="92" height="97" viewBox="0 0 92 97" fill="none" xmlns="http://www.w3.org/2000/svg">
<path d="M45.8584 0.122559L0.305115 16.1462L7.50375 75.7998L45.9066 96.8965L84.5078 75.5139L91.7035 15.8625L45.8584 0.122559Z" fill="#B3B3B3"/>
<path d="M87.1599 19.3101L45.752 5.19629V91.8562L80.4536 72.66L87.1596 19.3101H87.1599Z" fill="#A6120D"/>
<path d="M5.41687 19.5644L11.5855 72.915L45.7513 91.8562V5.19482L5.41723 19.564L5.41687 19.5644Z" fill="#DD1B16"/>
<path d="M57.1503 51.3294L45.752 56.6571H33.7385L28.0913 70.7756L17.5874 70.9696L45.752 8.34326L57.1503 51.3298V51.3294ZM56.0485 48.6473L45.8279 28.4231L37.444 48.2992H45.7517L56.0485 48.6476V48.6473Z" fill="#F2F2F2"/>
<path d="M45.7517 8.34277L45.8271 28.4229L55.3398 48.3145H45.7732L45.7517 56.6441L58.9803 56.6567L65.163 70.9716L75.2136 71.1577L45.7517 8.34277Z" fill="#B3B3B3"/>
</svg>
