<svg width="90" height="90" viewBox="0 0 90 90" fill="none" xmlns="http://www.w3.org/2000/svg">
<path d="M45 0C20.1456 0 0 20.1456 0 45C0 69.8544 20.1456 90 45 90C69.8544 90 90 69.8544 90 45C90 20.1456 69.8544 0 45 0ZM9.6696 45.468L44.532 80.3304C25.3872 80.082 9.918 64.6128 9.6696 45.468ZM52.9092 79.4484L10.5516 37.0908C14.1444 21.384 28.2024 9.6624 45 9.6624C56.7396 9.6624 67.1436 15.39 73.5696 24.2028L68.6772 28.5192C63.4644 21.0456 54.8028 16.1532 45 16.1532C32.5188 16.1532 21.888 24.0804 17.8704 35.1756L54.8244 72.126C63.7992 68.8752 70.7004 61.3008 73.0116 51.9192H57.6972V45H80.3412C80.3376 61.7976 68.616 75.8556 52.9092 79.4484Z" fill="#744C9E"/>
</svg>
