<svg width="104" height="104" viewBox="0 0 104 104" fill="none" xmlns="http://www.w3.org/2000/svg">
<g clip-path="url(#clip0)">
<path d="M102.039 47.3674L56.6312 1.96249C54.0178 -0.652537 49.7766 -0.652537 47.1599 1.96249L37.7309 11.3916L49.6921 23.3528C52.4717 22.4135 55.6591 23.0436 57.8748 25.2593C60.101 27.4892 60.7267 30.7039 59.7647 33.4924L71.292 45.0201C74.0809 44.0593 77.2988 44.6809 79.5263 46.912C82.6394 50.0239 82.6394 55.0675 79.5263 58.1814C76.4124 61.2957 71.3688 61.2957 68.2532 58.1814C65.9116 55.8373 65.3331 52.3984 66.5186 49.5136L55.7684 38.7635L55.7672 67.0535C56.5465 67.4388 57.2582 67.9478 57.8748 68.5607C60.9879 71.6726 60.9879 76.7166 57.8748 79.8329C54.7609 82.9456 49.7148 82.9456 46.6054 79.8329C43.4923 76.7166 43.4923 71.673 46.6054 68.5611C47.3514 67.8147 48.238 67.2236 49.2139 66.8219V38.2682C48.2366 37.8693 47.3495 37.2778 46.6054 36.5291C44.2467 34.1736 43.6796 30.7128 44.8882 27.8167L33.0972 16.0244L1.96219 47.1574C-0.654063 49.7749 -0.654063 54.0165 1.96219 56.632L47.3704 102.038C49.9846 104.653 54.225 104.653 56.8425 102.038L102.038 56.8428C104.654 54.2266 104.654 49.9825 102.038 47.3674" fill="#DE4C36"/>
</g>
<defs>
<clipPath id="clip0">
<rect width="104" height="104" fill="white"/>
</clipPath>
</defs>
</svg>
