<svg width="92" height="130" viewBox="0 0 92 130" fill="none" xmlns="http://www.w3.org/2000/svg">
<path d="M91.8325 25.4836L83.481 119.242L45.9402 129.672L8.50289 119.257L0.159973 25.4836H91.8325Z" fill="#E44D26"/>
<path d="M45.9962 121.699L76.3311 113.272L83.4677 33.1506H45.9962V121.699Z" fill="#F16529"/>
<path d="M29.761 56.1527H45.9962V44.6519H17.2188L17.4933 47.7373L20.3142 79.4306H45.9962V67.9298H30.8099L29.761 56.1527ZM32.3475 85.1812H20.8269L22.4346 103.239L45.9434 109.779L45.9962 109.765V97.7988L45.9459 97.8121L33.1647 94.3536L32.3475 85.1812Z" fill="#EBEBEB"/>
<path d="M8.68896 0H14.5211V5.77438H19.8563V0H25.6889V17.4863H19.8567V11.6309H14.5215V17.4863H8.68932V0H8.68896ZM33.358 5.79886H28.2244V0H44.3281V5.79886H39.1913V17.4863H33.3591V5.79886H33.3587H33.358ZM46.8838 0H52.965L56.7057 6.14421L60.4429 0H66.5267V17.4863H60.7182V8.81911L56.7057 15.0364H56.6051L52.5902 8.81911V17.4863H46.8838V0ZM69.4291 0H75.2631V11.7065H83.4648V17.4863H69.4287V0H69.4291Z" fill="black"/>
<path d="M45.9567 79.4306H60.0886L58.7562 94.3464L45.9563 97.8085V109.774L69.4837 103.239L69.6562 101.296L72.3534 71.0181L72.6333 67.9298H45.9567V79.4306ZM45.9567 56.1246V56.1527H73.6776L73.9076 53.5678L74.4308 47.7373L74.705 44.6519H45.9567V56.125V56.1246Z" fill="white"/>
</svg>
