<svg width="95" height="104" viewBox="0 0 95 104" fill="none" xmlns="http://www.w3.org/2000/svg">
<path d="M0 0H95V104H0V0Z" fill="#F0DB4F"/>
<path d="M87.2248 79.1963C86.5295 74.4511 83.703 70.4671 75.3318 66.7499C72.424 65.2868 69.182 64.239 68.2158 61.8267C67.8726 60.4229 67.8275 59.6321 68.0442 58.7819C68.6673 56.0237 71.6744 55.1636 74.0585 55.9545C75.5936 56.518 77.0475 57.8132 77.9235 59.8792C82.0233 56.9728 82.0143 56.9925 84.8769 54.9957C83.8294 53.2162 83.2695 52.3956 82.5832 51.6344C80.1179 48.6192 76.7586 47.0671 71.3855 47.1858C70.4553 47.3143 69.5163 47.4526 68.586 47.5812C65.9041 48.3227 63.3484 49.8649 61.8493 51.931C57.3522 57.5166 58.6345 67.2937 64.1069 71.3173C69.4981 75.7462 77.4178 76.7546 78.4292 80.8968C79.4135 85.9683 75.0248 87.6093 70.663 87.0261C67.4482 86.2945 65.6603 84.5052 63.7277 81.2527C60.1698 83.5067 60.1698 83.5067 56.5125 85.8101C57.3794 87.8862 58.2914 88.8253 59.7453 90.6246C66.6265 98.2664 83.8474 97.8907 86.9359 86.3242C87.0623 85.9287 87.8932 83.2792 87.2248 79.1963ZM51.645 47.7986H42.759C42.759 56.2016 42.723 64.5454 42.723 72.9484C42.723 78.2967 42.9759 83.2001 42.1812 84.7028C40.8808 87.6586 37.5125 87.2929 35.9773 86.7194C34.415 85.8791 33.6203 84.6829 32.6992 82.9925C32.4464 82.5081 32.2568 82.1325 32.1934 82.1028C29.7824 83.7142 27.3802 85.3354 24.9691 86.9469C26.1703 89.6458 27.9401 91.9887 30.2068 93.5111C33.5932 95.7354 38.1445 96.4175 42.9036 95.2213C46.001 94.2327 48.674 92.1865 50.0737 89.0724C52.0965 84.9895 51.663 80.0465 51.645 74.5796C51.6901 65.6625 51.645 56.7454 51.645 47.7986Z" fill="#323330"/>
</svg>
