<svg width="102" height="90" viewBox="0 0 102 90" fill="none" xmlns="http://www.w3.org/2000/svg">
<path d="M69.1512 28.6396L57.888 32.6514L48.0892 37.3689L45.3479 38.1583C44.6497 38.8827 43.9177 39.6164 43.1259 40.3593C42.2576 41.1764 41.4488 41.9195 40.8272 42.458C40.1377 43.0523 39.1161 44.1667 38.5968 44.8723C37.8221 45.931 37.2091 47.0546 36.9452 47.9183C36.4769 49.4785 36.7069 51.0571 37.6093 52.5152C38.7671 54.3724 41.0742 56.2668 43.7644 57.5576C45.1351 58.2171 47.4422 59.062 49.1789 59.5356C52.0648 60.3343 57.6496 61.1979 60.7229 61.328C61.3443 61.3559 62.1786 61.3559 62.2126 61.328C62.2808 61.2814 62.7575 60.2879 63.311 59.0529C65.201 54.846 66.5631 50.8993 67.3037 47.5284C67.7464 45.4855 68.0954 42.7645 68.3251 39.5422C68.3848 38.6414 68.4103 35.6233 68.3592 34.6017C68.2825 32.9302 68.1463 31.5745 67.9337 30.2465C67.8996 30.0514 67.8909 29.875 67.9081 29.8657C67.942 29.8379 68.0442 29.8008 69.4319 29.3642L69.151 28.6399V28.6397H69.1512V28.6396ZM66.5802 30.2835C66.6823 30.2835 66.9547 33.1343 67.0227 34.936C67.0399 35.3167 67.0312 35.5674 67.0143 35.5674C66.9462 35.5674 65.5755 34.6853 64.5966 34.0167C63.7452 33.4316 62.1278 32.2615 61.8724 32.0386C61.7871 31.9737 61.7956 31.9644 62.4938 31.7043C63.677 31.2678 66.4866 30.2835 66.5802 30.2835ZM60.8422 32.3451C60.9188 32.3451 61.1145 32.4657 61.5828 32.7815C63.3365 33.9794 65.7203 35.4282 66.7419 35.9111C67.0568 36.0597 67.0908 36.0039 66.3673 36.5426C64.8179 37.6941 62.8852 38.8269 60.5185 39.9692C60.1014 40.1735 59.7524 40.3313 59.7439 40.3313C59.727 40.3313 59.7779 40.0993 59.8459 39.8207C60.4163 37.5082 60.7399 35.1681 60.757 33.2922C60.7655 32.3635 60.7655 32.3635 60.8422 32.3358C60.8251 32.3451 60.8335 32.3451 60.8422 32.3451ZM59.6589 32.8372C59.7098 32.8928 59.6758 34.9731 59.6077 35.5395C59.4544 36.8954 59.2161 38.1583 58.8246 39.5792C58.7309 39.9226 58.6456 40.2106 58.6288 40.2291C58.5946 40.2755 57.4282 39.0312 57.0452 38.5483C56.3811 37.7125 55.8619 36.8767 55.4788 36.0596C55.283 35.6416 54.9765 34.8245 55.002 34.7966C55.1382 34.6945 59.6248 32.8001 59.6589 32.8372ZM54.091 35.2238C54.0995 35.2238 54.108 35.2238 54.1166 35.233C54.1336 35.2516 54.1933 35.4002 54.2444 35.5673C54.5167 36.3753 55.1296 37.5639 55.6576 38.3254C56.2365 39.1613 56.9942 40.0527 57.624 40.6377C57.8284 40.8234 58.0156 40.9998 58.0411 41.0278C58.0923 41.0835 58.1093 41.0741 56.7216 41.65C55.1127 42.3186 53.3589 42.9872 51.3497 43.6929C50.8697 43.8617 50.3902 44.0319 49.9111 44.2037C49.8344 44.2316 49.86 44.1851 50.0813 43.8044C51.0773 42.105 52.5927 38.7712 53.4441 36.4124C53.5888 36.0038 53.7335 35.5953 53.7591 35.5024C53.7932 35.3723 53.8357 35.3259 53.9463 35.2609C54.0059 35.2424 54.0656 35.2238 54.091 35.2238ZM52.3885 35.9945C52.414 36.0132 51.9798 37.0068 51.5541 37.9168C50.7283 39.6719 49.8259 41.3993 48.617 43.498C48.4127 43.8601 48.217 44.1945 48.1914 44.2316C48.1489 44.2967 48.1318 44.278 47.9956 43.9902C47.7061 43.368 47.4677 42.5693 47.34 41.8357C47.2123 41.1113 47.2379 39.8484 47.3826 39.0684C47.4932 38.4927 47.4848 38.502 47.7402 38.3626C48.8299 37.759 52.3544 35.9574 52.3885 35.9945ZM67.0739 36.6447V37.0347C67.0739 39.1056 66.8696 41.9472 66.5716 44.0181C66.5205 44.3802 66.4778 44.6773 66.4694 44.6867C66.4694 44.6867 66.2226 44.6125 65.9331 44.5195C64.6561 44.083 63.2685 43.4422 62.0169 42.6902C61.191 42.198 59.9907 41.39 60.0249 41.3528C60.0332 41.3436 60.3909 41.1393 60.8079 40.8978C62.4768 39.9506 64.0771 38.9291 65.4648 37.9169C65.9842 37.5361 66.7673 36.9233 66.9377 36.7561L67.0739 36.6447ZM45.9608 39.3933C45.9949 39.3933 45.9863 39.4676 45.9353 39.8019C45.9012 40.0434 45.8587 40.4892 45.8418 40.7955C45.7735 42.1513 45.9779 43.1543 46.5909 44.5287C46.7611 44.9094 46.8974 45.2252 46.8888 45.2344C46.8292 45.2902 41.1935 47.0918 39.4226 47.6211C38.8948 47.7789 38.4352 47.9182 38.4009 47.9274C38.3414 47.9461 38.3329 47.9368 38.3584 47.7788C38.5542 46.4138 39.5077 44.6308 40.8358 43.1263C41.7212 42.1235 42.4278 41.5385 43.6367 40.7861C44.5051 40.2476 45.8416 39.4398 45.9438 39.4026C45.9439 39.3933 45.9523 39.3933 45.9608 39.3933ZM59.2417 41.9842C59.2501 41.975 59.4544 42.0958 59.7013 42.2536C61.5232 43.4051 64.0601 44.4731 66.2224 45.0209L66.4183 45.0674L66.1458 45.2344C65.0136 45.9217 61.2933 47.6117 57.4879 49.1626C56.9345 49.3854 56.3897 49.6084 56.2874 49.6548C56.1852 49.7011 56.0916 49.7291 56.0916 49.7198C56.0916 49.7104 56.2449 49.3854 56.4406 48.9862C57.5047 46.8131 58.5775 44.1666 59.1223 42.3278C59.1906 42.1514 59.233 41.9936 59.2417 41.9842ZM57.888 42.4672C57.8967 42.4766 57.8285 42.6715 57.7433 42.8943C57.0027 44.8537 56.032 46.9897 54.7892 49.3856C54.4742 49.9985 54.2103 50.4907 54.2016 50.4907C54.1933 50.4907 53.9378 50.3235 53.6313 50.1192C51.8264 48.9119 50.226 47.4262 49.1789 45.9867L49.0256 45.7824L49.8002 45.5503C52.5756 44.7239 54.9337 43.8324 57.275 42.7366C57.6071 42.588 57.8796 42.4672 57.888 42.4672ZM66.2992 45.671C66.2992 45.671 66.3077 45.6803 66.2992 45.671C66.3077 45.8846 65.8735 47.7976 65.5159 49.1811C65.218 50.3419 64.9624 51.2521 64.4943 52.8585C64.29 53.5645 64.1114 54.1493 64.1027 54.1493C64.0942 54.1493 64.0432 54.1401 63.9921 54.1216C61.4637 53.62 59.1991 52.9236 57.0708 51.995C56.4748 51.7349 55.6235 51.317 55.5724 51.2706C55.5554 51.2518 56.0663 50.992 56.7132 50.6855C60.5868 48.8375 64.6051 46.7388 65.9842 45.8381C66.1459 45.7266 66.2736 45.671 66.2992 45.671ZM46.8803 46.3954C46.8974 46.4139 45.8162 48.1133 44.3007 50.4256C43.7729 51.2336 43.16 52.1807 42.9302 52.5336C42.7003 52.8865 42.3513 53.4437 42.1555 53.778L41.7977 54.3816L41.4146 54.0288C40.9634 53.6201 40.1803 52.7472 39.8312 52.2643C39.099 51.2708 38.6053 50.2214 38.4095 49.265C38.3159 48.8192 38.3159 48.5962 38.4009 48.5685C38.5286 48.5313 40.8016 47.9462 42.9301 47.4075C44.1135 47.1105 45.484 46.7576 45.9778 46.6276C46.4716 46.4974 46.8719 46.3954 46.8803 46.3954ZM47.97 46.8504L48.2423 47.1847C49.4684 48.6798 50.7198 49.7851 52.2352 50.7506C52.5077 50.9179 52.7119 51.0664 52.6948 51.0758C52.6354 51.1222 47.4336 53.1372 45.0244 54.0473C43.6708 54.5673 42.5555 54.9852 42.5471 54.9852C42.5386 54.9852 42.4619 54.9295 42.3767 54.8645L42.2235 54.7437L42.4704 54.3538C43.2706 53.0908 44.2753 51.7072 46.4632 48.8284L47.97 46.8504ZM54.7637 52.1528C54.7721 52.1436 55.1467 52.2921 55.6064 52.478C56.7132 52.933 57.59 53.2208 58.7649 53.5459C60.2122 53.9452 62.3064 54.3353 63.5409 54.4467C63.7282 54.4652 63.8304 54.4838 63.7963 54.5117C63.7366 54.5489 62.4853 55.0039 61.5658 55.3196C60.1014 55.821 55.632 57.2604 51.9883 58.4027C51.3158 58.6162 50.7368 58.7927 50.7028 58.8019C50.6177 58.8206 50.3367 58.7369 50.3367 58.6998C50.3367 58.6813 50.541 58.3934 50.7879 58.0777C52.0138 56.4804 53.2313 54.6974 54.2444 53.0073C54.5252 52.5428 54.7637 52.1621 54.7637 52.1528ZM53.2652 52.1994C53.2737 52.2086 52.6693 53.2672 51.6138 55.0873C51.1625 55.8581 50.6602 56.731 50.4814 57.0375C50.3111 57.3346 50.0557 57.7991 49.9111 58.059L49.6641 58.5327L49.5365 58.4955C49.2299 58.4026 47.0761 57.576 46.5057 57.3253C45.799 57.0189 45.0669 56.6475 44.522 56.3318C43.841 55.9324 42.9897 55.338 43.0578 55.3196C43.0748 55.3103 44.2411 54.9666 45.6457 54.5488C49.3746 53.4436 51.4433 52.8029 52.797 52.3386C53.044 52.255 53.2568 52.19 53.2652 52.1994ZM63.8643 54.9109H63.8728C63.9069 55.0038 62.5278 59.1827 62.0253 60.5013C61.9148 60.7984 61.8724 60.8729 61.8127 60.8634C61.6679 60.8543 59.6674 60.5478 58.4498 60.3527C56.3301 59.9999 52.7715 59.3218 51.8777 59.0991L51.6734 59.0527L52.9417 58.7368C55.666 58.0682 56.9771 57.706 58.3051 57.2603C59.9823 56.7031 61.6425 56.0066 63.3195 55.1523C63.5834 55.0223 63.8048 54.9201 63.8643 54.9109Z" fill="url(#paint0_linear)"/>
<path d="M57.5391 0.000475636C57.3518 -0.0272309 54.3295 1.16141 52.38 2.02493C49.7493 3.19516 47.7062 4.30959 46.4462 5.27516C45.9781 5.63748 45.3905 6.27816 45.297 6.52884C45.263 6.62173 45.2458 6.73315 45.2458 6.84458L46.3867 8.02397L49.1024 8.97117L55.5641 10.2341L62.9536 11.6178L63.0302 10.9214C63.0048 10.9214 62.9876 10.9121 62.9623 10.9121L61.9915 10.7449L61.7959 10.3642C60.7913 8.43258 59.6845 6.03668 59.0376 4.42084C58.5353 3.16715 58.0585 1.71862 57.7946 0.678492C57.6498 0.0470239 57.6329 0.00989661 57.5393 0.000646834V0.00043251H57.5391V0.000475636ZM57.4028 0.474227H57.4115C57.4199 0.483391 57.454 0.743584 57.4881 1.04985C57.6327 2.35013 57.8968 3.6036 58.3139 4.95947C58.6288 5.98101 58.6288 5.92534 58.2628 5.80454C57.3944 5.5446 53.5039 4.81096 50.6859 4.3838C50.2347 4.31875 49.8516 4.25379 49.8516 4.24454C49.8176 4.20741 51.8862 3.02793 52.7972 2.56373C53.9635 1.97856 57.1645 0.520604 57.4028 0.474227ZM49.1959 4.63448L49.5281 4.75507C51.3328 5.4238 55.8703 6.37104 58.3734 6.59389C58.6542 6.62177 58.8927 6.64969 58.9011 6.64969C58.9096 6.65894 58.6714 6.79824 58.3648 6.95605C57.156 7.61539 55.8279 8.42333 54.9084 9.04555C54.6361 9.23119 54.3891 9.37987 54.3551 9.37987C54.321 9.37987 54.1423 9.3427 53.955 9.31482L53.6145 9.25902L52.7633 8.34891C51.2649 6.76103 50.09 5.53526 49.6388 5.07085L49.1959 4.63448ZM48.8555 4.9223L50.0559 6.55676C50.7113 7.45755 51.3754 8.3397 51.5203 8.53463C51.6649 8.72978 51.7841 8.88771 51.7756 8.89696C51.7416 8.92479 50.039 8.56255 49.1365 8.33979C48.2085 8.10756 47.8254 7.99613 47.255 7.8012L46.7868 7.63398V7.50388C46.7953 6.88166 47.519 5.95309 48.7449 5.00597L48.8555 4.9223ZM59.0545 7.15106C59.0886 7.15106 59.131 7.23461 59.2332 7.48534C59.5226 8.18177 60.4252 10.0577 60.6464 10.4198C60.7147 10.5407 60.8337 10.5499 59.6334 10.3363C56.7475 9.82545 55.8194 9.65848 55.8194 9.63989C55.8194 9.63064 55.9045 9.5656 56.0152 9.50055C56.9092 8.96205 57.8115 8.27478 58.6118 7.54114C58.8077 7.36466 58.9864 7.19753 59.0204 7.1696C59.0289 7.15106 59.046 7.14181 59.0545 7.15106Z" fill="url(#paint1_linear)"/>
<path d="M45.3564 6.39893C45.3564 6.39893 45.1692 6.72408 45.3479 7.207C45.4587 7.50406 45.7821 7.86617 46.1482 8.23771C46.1482 8.23771 49.9366 12.268 50.3963 12.8438C52.4905 15.4811 53.4015 18.0813 53.4866 21.6659C53.5377 23.9689 53.1375 25.9933 52.1415 28.3428C50.3707 32.5589 46.6333 37.2114 40.8698 42.3746L41.7128 42.0682C42.2576 41.6223 42.9983 41.1489 44.7349 40.1088C48.7447 37.7127 53.2568 35.5119 58.7905 33.246C66.7587 29.9771 79.8609 26.151 87.3185 24.9068L88.0933 24.7767L87.974 24.5724C87.2931 23.4209 86.8247 22.7059 86.2628 21.9444C84.6283 19.7342 82.6448 17.942 80.2184 16.4561C76.8812 14.4225 72.5648 12.8346 67.0994 11.6552C66.0693 11.4322 63.8047 11.0051 61.9659 10.6986C58.0667 10.0394 55.5468 9.58432 52.7715 9.06428C51.7755 8.87847 50.2855 8.59995 49.298 8.36785C48.7872 8.247 47.8083 7.99631 47.0421 7.70846C46.4291 7.44831 45.5437 7.18828 45.3564 6.39893ZM47.5529 8.72062C47.5613 8.71146 47.6975 8.767 47.8764 8.83205C48.1999 8.95264 48.617 9.09198 49.1109 9.24067C49.4846 9.35277 49.8592 9.46111 50.2347 9.56565C50.7454 9.70487 51.171 9.83492 51.1795 9.83492C51.2392 9.89997 52.0991 12.8993 52.3886 14.0508C52.4991 14.4874 52.5844 14.8588 52.5759 14.8588C52.5671 14.8682 52.4736 14.7102 52.363 14.4966C51.3669 12.5836 49.7919 10.6428 47.97 9.08261C47.7318 8.89705 47.5529 8.72987 47.5529 8.72062ZM51.7415 9.98356C51.7841 9.98356 51.9714 10.0114 52.2011 10.0671C53.6484 10.42 56.245 10.9586 57.905 11.2651C58.186 11.3115 58.4074 11.3673 58.4074 11.3858C58.4074 11.4044 58.3052 11.4693 58.1774 11.5437C57.8966 11.7015 56.7642 12.4351 56.3898 12.7137C55.4447 13.4009 54.5935 14.1438 53.9804 14.8124C53.7336 15.0817 53.5206 15.3046 53.5206 15.3046C53.5206 15.3046 53.4697 15.1468 53.427 14.9516C53.1207 13.6608 52.4821 11.7478 51.9032 10.4013C51.8095 10.1878 51.7328 9.99277 51.7328 9.97427C51.7328 9.99281 51.7328 9.98356 51.7415 9.98356ZM59.114 11.5158C59.165 11.5343 59.2502 11.8501 59.4204 12.5465C59.7355 13.8931 59.8802 15.3975 59.8291 16.7998C59.812 17.1898 59.795 17.5519 59.7779 17.5984L59.7525 17.6912L59.3098 17.5334C58.3988 17.2177 56.9176 16.744 55.6491 16.354C54.9254 16.1404 54.3381 15.9454 54.3381 15.9269C54.3381 15.8711 55.3938 14.7196 55.845 14.2832C56.7046 13.4566 59.0373 11.4879 59.114 11.5158ZM59.7014 11.6086C59.727 11.5809 63.2259 12.24 64.8179 12.5744C66.0014 12.8251 67.721 13.2152 67.8231 13.2617C67.8742 13.2802 67.6954 13.3916 67.1249 13.6702C64.8775 14.7753 63.2088 15.7688 61.5489 16.9762C61.1147 17.2919 60.7486 17.5519 60.7401 17.5519C60.7316 17.5519 60.7231 17.2827 60.7231 16.9576C60.7231 15.1932 60.3995 13.4102 59.8035 11.9058C59.7439 11.7573 59.6929 11.618 59.7014 11.6086ZM68.751 13.5588C68.7766 13.5867 68.6659 14.3389 68.5637 14.7846C68.2573 16.1683 67.4315 18.2207 66.4185 20.1522C66.2396 20.4958 66.0779 20.7744 66.0607 20.7836C66.0439 20.7929 65.814 20.6535 65.55 20.4864C64.5625 19.8549 63.4388 19.2606 62.2128 18.7034C61.8724 18.5456 61.5743 18.4155 61.5658 18.3971C61.5061 18.3413 64.2475 16.3633 65.6948 15.4161C66.8441 14.6546 68.7169 13.5216 68.751 13.5588ZM69.398 13.6702C69.4747 13.6702 71.0241 14.1346 71.8327 14.3946C73.8335 15.0447 76.132 15.964 77.6304 16.7069L78.2517 17.0134L77.8177 17.1248C74.1571 18.0441 71.0241 19.1029 68.0018 20.4401C67.7549 20.5515 67.5335 20.6444 67.5167 20.6444C67.4996 20.6444 67.5847 20.4308 67.6954 20.1707C68.6064 18.0627 69.1938 15.8618 69.3384 13.9859C69.347 13.8094 69.3724 13.6702 69.398 13.6702ZM53.972 17.5334C53.9974 17.5055 55.1808 17.812 55.8193 18.0069C56.7898 18.3041 58.85 19.0562 58.85 19.112C58.85 19.1213 58.6202 19.3349 58.3479 19.595C57.2326 20.6072 56.1599 21.675 54.8743 23.0309C54.4911 23.4303 54.1677 23.7553 54.1508 23.7553C54.1337 23.7553 54.1253 23.6995 54.1337 23.6252C54.3294 22.065 54.287 20.0592 54.0146 18.0255C53.9889 17.7654 53.9634 17.5427 53.972 17.5334ZM78.8394 17.5613C78.8562 17.5798 78.2944 18.5456 77.9369 19.0934C77.4262 19.892 76.6768 20.9509 74.9827 23.2724C74.089 24.4981 73.0842 25.8819 72.7523 26.3462C72.4116 26.8105 72.1308 27.2004 72.1222 27.2004C72.1137 27.2004 72.0032 27.0334 71.8839 26.8291C70.9304 25.2689 69.7896 23.9038 68.4359 22.678C68.1806 22.4458 67.8997 22.1951 67.8061 22.1208C67.7124 22.0465 67.6357 21.9722 67.6357 21.963C67.6357 21.9352 69.0829 21.2571 70.1813 20.7743C72.1053 19.9199 74.7271 18.8985 76.6939 18.2391C77.724 17.8863 78.8223 17.5427 78.8394 17.5613ZM79.4949 17.7469C79.5288 17.7377 79.7332 17.8491 79.9801 18.0069C82.0489 19.2977 84.0749 20.96 85.6756 22.6687C86.1267 23.1517 87.242 24.4146 87.2249 24.4239C87.2249 24.4239 86.8333 24.461 86.3736 24.4981C82.7895 24.7954 78.2009 25.6217 73.7909 26.7825C73.493 26.8567 73.2292 26.9218 73.212 26.9218C73.1952 26.9218 73.5271 26.5597 73.9443 26.1232C76.5323 23.4023 77.7157 21.6844 79.1118 18.6198C79.3075 18.1649 79.4779 17.7748 79.4949 17.7469C79.4864 17.7469 79.4864 17.7469 79.4949 17.7469ZM60.5357 19.8643C60.6549 19.8921 61.7616 20.4587 62.5959 20.9136C63.3621 21.3314 64.5115 22.0002 64.571 22.0558C64.5795 22.065 64.1708 22.2972 63.6687 22.5666C62.0681 23.4395 60.6975 24.2659 59.2672 25.2131C58.8586 25.4825 58.5181 25.7055 58.5096 25.7055C58.4755 25.7055 58.484 25.6681 58.7139 25.2131C59.4801 23.6903 60.093 21.8701 60.4421 20.0964C60.4761 19.9571 60.5102 19.8643 60.5357 19.8643ZM59.4289 20.0871C59.4545 20.115 59.165 21.2572 58.9863 21.8794C58.6372 23.0588 58.0498 24.5353 57.4795 25.6497C57.3431 25.9096 57.1388 26.2903 57.0282 26.5039L56.8154 26.8753L56.3386 26.374C55.7853 25.7889 55.334 25.4268 54.7552 25.1017C54.5252 24.9718 54.3465 24.8602 54.3465 24.8418C54.3465 24.7675 55.8023 23.3281 56.9175 22.288C57.7177 21.5358 59.4034 20.0593 59.4289 20.0871ZM66.1972 23.1238L66.6144 23.4209C67.5676 24.0989 68.6913 24.9996 69.5514 25.7889C70.0365 26.2253 70.9729 27.1448 71.1604 27.3676L71.2624 27.4885L70.573 27.702C66.6738 28.8813 63.6601 29.9306 60.1441 31.3423C59.7525 31.5001 59.4204 31.6301 59.3948 31.6301C59.3439 31.6301 59.3012 31.6765 60.1782 30.7942C62.4257 28.5378 64.4177 26.0489 65.8991 23.6252L66.1972 23.1238ZM64.4178 23.6067C64.4348 23.6252 63.2685 25.4174 62.5703 26.4297C61.7361 27.637 60.2547 29.6613 59.2331 30.9799C58.8075 31.5279 58.4415 31.9829 58.4244 31.9922C58.3988 32.0015 58.3904 31.8622 58.3904 31.6486C58.3904 30.5249 58.1265 29.3269 57.6667 28.3055C57.4709 27.8783 57.4368 27.7762 57.4795 27.7298C57.6412 27.5719 60.1186 26.0303 61.685 25.111C62.7406 24.4982 64.3921 23.5881 64.4178 23.6067ZM53.6569 26.4855C53.6825 26.4855 53.8783 26.5968 54.0997 26.7269C54.6445 27.0519 55.1298 27.4141 55.5639 27.8042C55.5809 27.8227 55.3596 28.0178 55.0702 28.2498C54.2614 28.8813 53.0355 29.8936 52.3205 30.5158C51.5711 31.1658 51.5458 31.1844 51.6308 31.0451C52.1927 30.1072 52.4736 29.5778 52.7716 28.9C53.0355 28.2964 53.2993 27.5813 53.4866 26.9591C53.5547 26.6898 53.6399 26.4855 53.6569 26.4855ZM56.526 28.937C56.5684 28.9279 56.6196 29.0113 56.8494 29.3829C57.3347 30.172 57.7093 31.2308 57.803 32.0852L57.8199 32.271L56.6537 32.7632C54.5678 33.6453 52.6439 34.5183 51.3412 35.1682C50.9753 35.354 50.3367 35.6883 49.9196 35.9113C49.5025 36.1433 49.1619 36.3198 49.1619 36.3105C49.1619 36.3013 49.4258 36.0877 49.7493 35.8276C52.2949 33.8125 54.4998 31.6022 56.1513 29.3921C56.3302 29.1599 56.492 28.9463 56.5089 28.9371L56.526 28.937ZM55.2064 29.29C55.2405 29.3271 54.27 30.525 53.606 31.2586C51.9629 33.0881 50.3368 34.5183 48.3191 35.9113C48.0637 36.0877 47.8339 36.2455 47.8083 36.2641C47.7487 36.3013 47.8253 36.2083 48.7107 35.159C49.2726 34.4996 49.6982 33.9424 50.1835 33.2553C50.507 32.8004 50.5666 32.7353 51.0349 32.373C52.2864 31.3886 55.1724 29.2528 55.2064 29.29Z" fill="url(#paint2_radial)"/>
<path d="M18.3409 67.742C18.1839 67.742 18.0268 67.7583 17.8711 67.7583C14.6991 67.9427 12.5597 69.4655 11.3088 72.4391C10.2389 75.1286 10.3557 78.644 11.3208 81.35C12.443 83.9939 14.2563 85.3893 17.2831 85.9164C17.9235 86.0308 18.3529 86.4143 19.5932 87.994L21.1194 89.9444H23.8873L22.0468 87.9205C21.0294 86.8108 20.2065 85.8445 20.2065 85.7596C20.2065 85.6748 20.5957 85.4888 21.0668 85.3321C22.6199 84.8195 23.9096 83.5107 24.8118 81.5049C25.542 79.8941 25.6468 79.3962 25.7514 77.3922C26.0253 71.427 23.142 67.6977 18.3408 67.7403L18.3409 67.742ZM20.7677 83.3412C19.4211 84.0526 17.4658 84.1947 16.1894 83.6839C14.8697 83.1552 13.592 81.6602 13.0174 79.9677C12.3785 78.117 12.4698 74.7028 13.1999 73.1652C14.3744 70.7172 15.9276 69.5911 18.1972 69.5911C21.5636 69.5911 23.4787 71.8402 23.7286 76.0671C23.9262 79.5957 22.8429 82.2429 20.7691 83.3397L20.7677 83.3412ZM68.5829 72.8373C67.4219 72.8373 66.5332 73.3499 65.9346 74.3599L65.4648 75.1596V73.0804H63.4554V85.5493H65.4635V81.5639C65.4635 77.9194 65.5051 77.4935 65.972 76.4962C66.6155 75.1286 67.7225 74.4466 68.7925 74.773L69.5106 75.0015V72.8406H68.5829V72.8373ZM56.778 72.7229C56.3844 72.7229 55.9669 72.7801 55.5512 72.8798C52.8624 73.6467 51.3468 76.4538 51.4395 79.3426C51.4395 81.7614 51.8703 82.9706 52.9403 84.2388C55.1323 86.2005 57.1147 86.3571 59.7898 85.3046C60.2462 85.0924 60.7429 84.8476 60.7429 84.8476V82.886L59.7898 83.4245C57.6248 84.4526 55.994 84.4526 54.6877 83.2416C53.8545 82.3162 53.4878 81.2064 53.3188 79.9401H61.4206V78.2589C61.4206 74.8316 59.5295 72.6675 56.7764 72.7229H56.778ZM53.5013 78.1904C53.5013 78.1904 53.8006 76.0525 54.9107 75.2135C55.445 74.8022 56.0583 74.6032 56.6583 74.6032C57.2598 74.6032 57.8597 74.8153 58.355 75.2283C59.3725 76.0818 59.543 78.1742 59.543 78.1742H53.5014V78.1904H53.5013ZM5.05914 75.9415C2.88076 74.502 1.9142 73.4639 2.03239 72.2399C2.37047 68.8534 6.2068 69.3218 8.33129 70.603L8.3464 68.3247C8.3464 68.3247 7.17183 67.7698 5.48856 67.7404C2.90615 67.698 1.2364 68.6216 0.453993 70.5018C-0.695189 73.2763 0.32235 75.3685 4.00006 77.7025C6.06474 79.0129 6.97734 80.1505 6.97734 81.3908C6.97734 83.9532 4.14509 84.8476 1.22308 83.24C0.62172 82.9136 0.11295 82.641 0.086042 82.641C-0.0187614 83.3673 0.0352617 85.1054 0.0352617 85.1054C0.0352617 85.1054 0.933025 85.5167 2.27946 85.8005C5.61882 86.5267 8.65771 84.818 8.94494 82.0436C9.19484 79.4389 8.33136 78.0728 5.05927 75.9396L5.05914 75.9415ZM86.3666 72.6937C85.9746 72.6937 85.5586 72.7524 85.1247 72.8519C82.4391 73.619 80.9264 76.4262 81.0296 79.315C81.0296 81.7305 81.4591 82.9283 82.5288 84.1947C84.7208 86.1582 86.7032 86.3164 89.3919 85.2622C89.8467 85.0501 90.342 84.8087 90.342 84.8087V82.8437L89.3905 83.3854C87.2211 84.4103 85.5901 84.4104 84.2885 83.1994C83.4505 82.2757 83.087 81.1789 82.9179 79.8977H91.0063V78.2167C91.0063 74.8058 89.115 72.6399 86.3621 72.6971L86.3666 72.6937ZM83.0899 78.161C83.0899 78.161 83.3922 76.0263 84.5008 75.171C85.0335 74.7582 85.6469 74.559 86.2468 74.559C86.8453 74.559 87.4483 74.7712 87.9437 75.1857C88.9611 76.0393 89.1317 78.1463 89.1317 78.1463H83.0916L83.0899 78.161ZM46.2597 75.9692C44.0814 74.533 43.1177 73.4917 43.2344 72.2675C43.5725 68.8793 47.4089 69.3495 49.5334 70.6307L49.5485 68.3524C49.5485 68.3524 48.3739 67.7975 46.6906 67.7713C44.1082 67.7289 42.4384 68.6526 41.6546 70.5327C40.507 73.3071 41.5379 75.3995 45.2035 77.7334C47.2653 79.0424 48.1779 80.1652 48.1779 81.4055C48.1779 83.9679 45.3471 84.877 42.4251 83.2546C41.8266 82.9282 41.318 82.6588 41.288 82.6588C41.1832 83.385 41.2372 85.1233 41.2372 85.1233C41.2372 85.1233 42.1244 85.5199 43.4665 85.8185C46.8089 86.5464 49.8492 84.8392 50.135 82.0647C50.3834 79.473 49.5216 78.107 46.2598 75.9722V75.9692H46.2597ZM98.173 72.8079C97.012 72.8079 96.1129 73.3219 95.5248 74.3322L95.0549 75.1286V73.0527H93.0455V85.5183H95.0534V81.533C95.0534 77.8902 95.0937 77.4625 95.5623 76.467C96.2056 75.101 97.3126 74.4173 98.3825 74.7452L99.1005 74.9736V72.808H98.173V72.8079ZM30.2805 75.8974V67.9557H28.2547V85.5461H36.7741V83.4686H30.2806V75.8974H30.2805ZM77.1292 78.3731L75.4594 83.1126L73.8539 78.347L72.223 73.0658H70.1494C71.4931 77.221 72.9546 81.4479 74.4285 85.5461C75.0674 85.5624 75.7077 85.5461 76.3465 85.5461L78.6014 79.3704L80.898 73.0673H78.9156C78.9156 73.0673 78.0402 75.5709 77.1277 78.3748L77.1292 78.3731ZM34.9485 63.1623C35.2748 63.1623 35.547 63.0482 35.7715 62.8034C35.9928 62.5617 36.1095 62.2778 36.1095 61.922C36.1095 61.5662 35.9928 61.2692 35.7715 61.0407C35.547 60.8122 35.2881 60.6979 34.9635 60.6979C34.6344 60.6979 34.362 60.8122 34.1405 61.0537C33.9162 61.2953 33.8144 61.5924 33.8144 61.9351C33.8144 62.2942 33.9192 62.5911 34.1405 62.8165C34.3501 63.0448 34.6224 63.1592 34.9485 63.1592V63.1623ZM34.2304 61.1387C34.4249 60.9266 34.6613 60.8285 34.9635 60.8285C35.2478 60.8285 35.4843 60.9266 35.6818 61.1387C35.8763 61.3508 35.9811 61.6087 35.9811 61.922C35.9811 62.2353 35.8763 62.5064 35.6818 62.7184C35.4844 62.9305 35.2478 63.0317 34.9635 63.0317C34.6748 63.0317 34.4398 62.9338 34.2454 62.7184C34.0509 62.5064 33.9462 62.2353 33.9462 61.922C33.9462 61.6087 34.0359 61.3509 34.2304 61.1387ZM34.7136 62.0364H34.8453C34.9381 62.0364 35.0293 62.1342 35.1071 62.3203L35.2643 62.7053H35.5111L35.3167 62.2776C35.2374 62.1064 35.1597 62.0069 35.0683 61.9789C35.1835 61.9496 35.2748 61.9072 35.3406 61.8222C35.4063 61.7489 35.4303 61.6493 35.4303 61.5366C35.4303 61.4061 35.3929 61.3083 35.3137 61.2364C35.2239 61.1548 35.0803 61.1108 34.8947 61.1108H34.4789V62.7053H34.6883V62.0362L34.7136 62.0364ZM34.7136 61.2953H34.8962C35.0279 61.2953 35.1207 61.3247 35.1715 61.3671C35.2209 61.4095 35.2344 61.4651 35.2344 61.5662C35.2344 61.7506 35.1295 61.8372 34.9352 61.8372H34.7108V61.2953H34.7136ZM1.24978 61.8943C1.24978 61.3394 1.23488 60.9266 1.22287 60.6833H1.23488C1.28718 60.9704 1.35155 61.1843 1.40392 61.3263L3.34889 66.0658H3.6751L5.62007 61.2839C5.67257 61.1535 5.72494 60.9575 5.78924 60.6849H5.80414C5.7653 61.1583 5.75185 61.5695 5.75185 61.8975V66.0805H6.41751V59.8624H5.58267L3.7948 64.1873C3.72891 64.3586 3.63763 64.615 3.52096 64.9544H3.49391C3.45507 64.7863 3.36379 64.53 3.23366 64.2166L1.48602 59.8476H0.598882V66.0656H1.23923V61.8973L1.24978 61.8943ZM7.87641 61.9059H8.45107V65.7786H7.87641V61.9059ZM8.16371 60.4858C8.28348 60.4858 8.38518 60.4417 8.46294 60.3553C8.54228 60.2704 8.59472 60.1594 8.59472 60.0289C8.59472 59.9016 8.55574 59.7873 8.46452 59.7025C8.38373 59.616 8.28045 59.5718 8.16226 59.5718C8.04566 59.5718 7.94092 59.616 7.86296 59.7025C7.78389 59.7873 7.73138 59.9016 7.73138 60.0289C7.73138 60.171 7.77181 60.2704 7.86296 60.3553C7.95293 60.4417 8.04559 60.4858 8.16226 60.4858H8.16371ZM12.5477 65.8636V65.1813C12.2334 65.4375 11.8952 65.5649 11.5452 65.5649C11.1264 65.5649 10.7866 65.4083 10.5382 65.1081C10.2914 64.8111 10.1597 64.3979 10.1597 63.8839C10.1597 63.3454 10.2914 62.9176 10.5636 62.5912C10.8255 62.2779 11.1652 62.1212 11.5812 62.1212C11.9208 62.1212 12.2468 62.2356 12.5477 62.4641V61.7379C12.2739 61.5812 11.9613 61.5093 11.6081 61.5093C10.9557 61.5093 10.4471 61.7379 10.0671 62.1787C9.68995 62.6192 9.49545 63.2182 9.49545 63.9413C9.49545 64.5842 9.66449 65.1245 10.0162 65.5375C10.3827 65.9617 10.8512 66.1772 11.4257 66.1772C11.8698 66.1638 12.2334 66.0626 12.5477 65.8636ZM14.1919 63.799C14.1919 63.2881 14.2966 62.8753 14.4911 62.5911C14.6737 62.335 14.8951 62.2061 15.1569 62.2061C15.3784 62.2061 15.5354 62.2501 15.6506 62.3497V61.6087C15.5609 61.5663 15.4307 61.5516 15.2616 61.5516C15.0267 61.5516 14.8174 61.6379 14.6333 61.7964C14.4388 61.9643 14.2832 62.2207 14.1919 62.5471H14.177V61.638H13.5262V66.0772H14.1785V63.799H14.1919ZM17.9369 66.1654C18.5504 66.1654 19.0441 65.9499 19.4106 65.5224C19.7756 65.0979 19.9581 64.5268 19.9581 63.8151C19.9581 63.089 19.7907 62.5341 19.4495 62.1209C19.1114 61.7083 18.6415 61.5089 18.028 61.5089C17.4145 61.5089 16.9208 61.7081 16.5543 62.0933C16.1623 62.5178 15.9558 63.1167 15.9558 63.8854C15.9558 64.5546 16.1234 65.1095 16.4766 65.5224C16.8416 65.9499 17.3249 66.1637 17.9369 66.1637V66.1654ZM17.0092 62.5487C17.2576 62.2631 17.5839 62.121 17.9877 62.121C18.4068 62.121 18.7209 62.2631 18.9543 62.5487C19.1892 62.8474 19.306 63.2735 19.306 63.843C19.306 64.3847 19.2012 64.8108 18.9797 65.0964C18.7584 65.3951 18.4322 65.5533 18.0012 65.5533C17.5823 65.5533 17.2576 65.3949 17.0092 65.0964C16.7624 64.7961 16.6442 64.3847 16.6442 63.843C16.6188 63.3044 16.749 62.8638 17.0092 62.5487ZM22.8145 65.7786C23.0628 65.5372 23.1946 65.2401 23.1946 64.8678C23.1946 64.5414 23.0897 64.2705 22.8953 64.0567C22.7366 63.8855 22.4914 63.7303 22.1368 63.5736C21.8224 63.4302 21.628 63.3027 21.5232 63.2031C21.4186 63.0889 21.3542 62.9471 21.3542 62.7462C21.3542 62.5618 21.4201 62.4198 21.5488 62.3056C21.6805 62.1915 21.848 62.136 22.0725 62.136C22.4241 62.136 22.7248 62.2371 23 62.451V61.7393C22.7367 61.5959 22.4509 61.5273 22.1247 61.5273C21.7058 61.5273 21.3527 61.6531 21.0923 61.896C20.8184 62.1377 20.6884 62.451 20.6884 62.8197C20.6884 63.1461 20.7781 63.4172 20.9486 63.6161C21.0922 63.7859 21.3378 63.959 21.6787 64.1139C22.005 64.2707 22.2264 64.4126 22.3445 64.5267C22.4612 64.6411 22.5136 64.783 22.5136 64.9513C22.5136 65.3656 22.2533 65.5796 21.7446 65.5796C21.3525 65.5796 21.0011 65.4392 20.6867 65.1553V65.9221C20.971 66.1084 21.3122 66.1931 21.6891 66.1931C22.1725 66.1654 22.5509 66.0365 22.8113 65.7803L22.8145 65.7786ZM25.9206 61.5091C25.307 61.5091 24.8134 61.7083 24.4468 62.0934C24.0578 62.5179 23.8484 63.1169 23.8484 63.8856C23.8484 64.5547 24.0175 65.1097 24.3691 65.5226C24.7356 65.95 25.2173 66.1639 25.8309 66.1639C26.4592 66.1639 26.9381 65.9485 27.3046 65.5208C27.6712 65.0965 27.8536 64.5253 27.8536 63.8136C27.8536 63.0874 27.6831 62.5325 27.3449 62.1196C26.992 61.7066 26.522 61.5075 25.9235 61.5075L25.9206 61.5091ZM27.1863 63.8431C27.1863 64.3848 27.0816 64.8108 26.8602 65.0964C26.6387 65.3952 26.3125 65.5533 25.8816 65.5533C25.4625 65.5533 25.1379 65.395 24.8895 65.0964C24.6427 64.7962 24.5245 64.3848 24.5245 63.8431C24.5245 63.2718 24.6548 62.8313 24.9166 62.5341C25.1633 62.2501 25.4897 62.1064 25.8951 62.1064C26.299 62.1064 26.6237 62.2499 26.8585 62.5341C27.0681 62.8474 27.1848 63.2734 27.1848 63.8431H27.1863ZM28.9489 66.0642H29.5998V62.2208H30.5528V61.6234H29.5997V60.9379C29.5997 60.3146 29.821 60.0012 30.279 60.0012C30.4331 60.0012 30.5902 60.0436 30.7069 60.1155V59.4742C30.5902 59.4171 30.4331 59.4041 30.2369 59.4041C29.8854 59.4041 29.5982 59.5184 29.3632 59.7598C29.0894 60.0438 28.9443 60.4126 28.9443 60.9122V61.6401H28.2559V62.2374H28.9443V66.0663L28.9489 66.0642ZM31.6225 64.8532C31.6225 65.7216 31.9742 66.1638 32.6923 66.1638C32.9527 66.1638 33.1487 66.1182 33.3058 66.017V65.4066C33.1861 65.5046 33.0439 65.5503 32.8869 65.5503C32.6656 65.5503 32.5099 65.493 32.4186 65.3641C32.3258 65.237 32.2735 65.0213 32.2735 64.7243V62.2192H33.3057V61.6217H32.2735V60.313C32.049 60.3978 31.8291 60.4697 31.6211 60.5413V61.6217H30.9179V62.2191H31.6211V64.8516L31.6225 64.8532ZM101.644 73.0363C101.423 72.8079 101.161 72.6936 100.836 72.6936C100.507 72.6936 100.235 72.8079 100.013 73.0527C99.7919 73.2926 99.6871 73.5912 99.6871 73.934C99.6871 74.2899 99.792 74.5869 100.012 74.8153C100.233 75.0437 100.505 75.1581 100.835 75.1581C101.159 75.1581 101.433 75.0438 101.658 74.8022C101.878 74.5574 101.994 74.2751 101.994 73.921C101.982 73.5619 101.864 73.2648 101.643 73.0364L101.644 73.0363ZM101.54 74.7174C101.345 74.9295 101.109 75.0274 100.821 75.0274C100.537 75.0274 100.301 74.9295 100.103 74.7174C99.9088 74.502 99.8039 74.2327 99.8039 73.9176C99.8039 73.6075 99.8936 73.3498 100.091 73.1343C100.286 72.9223 100.521 72.8242 100.821 72.8242C101.106 72.8242 101.342 72.9223 101.54 73.1343C101.734 73.3498 101.839 73.6075 101.839 73.9176C101.839 74.2474 101.749 74.502 101.54 74.7174ZM100.953 73.9911C101.07 73.9617 101.162 73.9046 101.227 73.8345C101.293 73.7609 101.317 73.6613 101.317 73.5473C101.317 73.42 101.279 73.3188 101.2 73.2486C101.11 73.167 100.965 73.1229 100.781 73.1229H100.365V74.7157H100.575V74.0465H100.705C100.795 74.0465 100.884 74.1444 100.965 74.3305L101.121 74.714H101.369L101.175 74.2863C101.107 74.1003 101.03 74.0153 100.95 73.9875L100.953 73.9911ZM100.809 73.8476H100.585V73.3091H100.769C100.899 73.3091 100.99 73.335 101.043 73.3792C101.095 73.4216 101.107 73.4771 101.107 73.5784C101.107 73.7627 101.002 73.8477 100.808 73.8477L100.809 73.8476ZM64.4086 61.439H64.5912V59.8445H65.0743V59.6453H63.9254V59.8445H64.4087V61.439H64.4086ZM65.5158 60.2411C65.5158 60.0859 65.5158 59.9586 65.5053 59.887C65.5173 59.9717 65.5442 60.029 65.5562 60.0714L66.1173 61.439H66.2071L66.7695 60.0582C66.7847 60.0158 66.7967 59.9603 66.822 59.887C66.81 60.029 66.81 60.143 66.81 60.2297V61.4374H67.0045V59.6453H66.7695L66.261 60.8825C66.249 60.9266 66.2084 61.013 66.1831 61.111H66.1681C66.1576 61.0538 66.1308 60.9967 66.0933 60.8989L65.5846 59.6455H65.3213V61.4407H65.5053V60.2428L65.5158 60.2411Z" fill="#231F1F"/>
<defs>
<linearGradient id="paint0_linear" x1="45.1824" y1="55.2802" x2="49.4306" y2="52.979" gradientUnits="userSpaceOnUse">
<stop stop-color="#909CA9"/>
<stop offset="1" stop-color="#EDEDEE"/>
</linearGradient>
<linearGradient id="paint1_linear" x1="45.2757" y1="5.791" x2="48.5528" y2="5.791" gradientUnits="userSpaceOnUse">
<stop stop-color="#939FAB"/>
<stop offset="1" stop-color="#DCDEE1"/>
</linearGradient>
<radialGradient id="paint2_radial" cx="0" cy="0" r="1" gradientUnits="userSpaceOnUse" gradientTransform="translate(61.8116 22.1854) rotate(-170.695) scale(4.23385 9.20038)">
<stop stop-color="#EE352C"/>
<stop offset="1" stop-color="#A91D22"/>
</radialGradient>
</defs>
</svg>
