<svg width="81" height="89" viewBox="0 0 81 89" fill="none" xmlns="http://www.w3.org/2000/svg">
<g clip-path="url(#clip0)">
<path d="M36.8454 0.949505C39.0586 -0.313647 41.9414 -0.319353 44.1527 0.949505C55.2778 7.2174 66.4064 13.4755 77.5295 19.7472C79.6216 20.9222 81.0211 23.2437 80.9998 25.6474V63.3574C81.0153 65.8606 79.4776 68.2376 77.2704 69.386C66.1819 75.6194 55.0991 81.8603 44.0125 88.0937C41.7535 89.3815 38.8129 89.2823 36.6244 87.8889C33.3001 85.9674 29.9701 84.0554 26.6454 82.1358C25.9661 81.7319 25.2002 81.4105 24.7205 80.7538C25.1446 80.1838 25.9028 80.1128 26.5189 79.864C27.9066 79.424 29.181 78.7178 30.4558 78.0325C30.7782 77.8125 31.1717 77.8969 31.4808 78.0937C34.3235 79.7188 37.141 81.3912 39.9933 83.0008C40.6017 83.3511 41.2178 82.8861 41.7379 82.597C52.6192 76.4651 63.5137 70.3563 74.3931 64.2225C74.7962 64.0291 75.019 63.6025 74.9863 63.1622C74.9939 50.7224 74.9882 38.2805 74.9901 25.8407C75.0362 25.3412 74.7463 24.8819 74.2933 24.6774C63.2432 18.4726 52.1989 12.2583 41.1508 6.05188C40.9594 5.92067 40.7326 5.85026 40.5003 5.84992C40.268 5.84958 40.0411 5.91932 39.8493 6.04998C28.8011 12.2583 17.7587 18.4783 6.7106 24.6828C6.25917 24.8876 5.95621 25.3393 6.00994 25.8407C6.01184 38.2805 6.00994 50.7224 6.00994 63.1641C5.99078 63.3789 6.0381 63.5944 6.14553 63.7816C6.25295 63.9688 6.41532 64.1187 6.61078 64.2111C9.55902 65.878 12.5111 67.5333 15.4612 69.1946C17.1232 70.0865 19.1639 70.6165 20.995 69.9331C22.6109 69.3553 23.7436 67.7111 23.7128 66.0004C23.728 53.6332 23.7051 41.2642 23.7242 28.8989C23.6838 28.3499 24.2061 27.8963 24.7415 27.948C26.1581 27.9385 27.5766 27.929 28.9932 27.9518C29.5845 27.9385 29.9914 28.5296 29.9183 29.0828C29.9125 41.5282 29.9335 53.974 29.9087 66.4194C29.9125 69.7363 28.5459 73.3454 25.4689 74.9683C21.6782 76.9263 16.9929 76.511 13.248 74.6336C10.006 73.0202 6.91215 71.1161 3.7277 69.3876C1.51477 68.2455 -0.0153037 65.859 0.00027362 63.3578V25.6474C-0.0229334 23.194 1.43212 20.8303 3.58941 19.6724C14.676 13.4339 25.7607 7.19077 36.8454 0.949505Z" fill="#8CC84B"/>
<path d="M46.4788 27.1385C51.2903 26.8295 56.4412 26.9554 60.7709 29.3203C64.1231 31.1325 65.9816 34.9358 66.0408 38.6514C65.9471 39.1526 65.422 39.429 64.9424 39.3946C63.5465 39.3927 62.1501 39.4136 60.7541 39.3851C60.162 39.4079 59.8178 38.8631 59.7434 38.3408C59.3423 36.563 58.3705 34.8023 56.6933 33.9448C54.1187 32.6587 51.1334 32.7234 48.3259 32.7502C46.2763 32.8588 44.0724 33.0359 42.336 34.2383C41.003 35.1491 40.5981 36.9878 41.0738 38.4686C41.5224 39.5319 42.7526 39.875 43.7592 40.1912C49.5577 41.7042 55.7022 41.5537 61.39 43.5448C63.7448 44.3565 66.0484 45.9345 66.8544 48.3943C67.9087 51.6911 67.4466 55.6318 65.0956 58.2784C63.189 60.4564 60.4122 61.6418 57.6426 62.2856C53.9583 63.1052 50.1347 63.1261 46.3931 62.7622C42.8748 62.362 39.2135 61.4398 36.4974 59.0482C34.1748 57.0362 33.0405 53.9013 33.1531 50.8756C33.18 50.3647 33.6899 50.0083 34.1805 50.0503C35.5863 50.039 36.9922 50.0352 38.398 50.0522C38.9595 50.0121 39.3758 50.4963 39.4045 51.0243C39.6639 52.7181 40.302 54.4959 41.7824 55.5001C44.6396 57.3392 48.2247 57.2132 51.4962 57.2647C54.2066 57.1448 57.2491 57.1085 59.461 55.3212C60.6279 54.3018 60.9737 52.5963 60.6583 51.129C60.3166 49.8903 59.0178 49.3131 57.9024 48.9356C52.1782 47.1291 45.9651 47.7846 40.2963 45.7417C37.9949 44.9303 35.7695 43.3961 34.8853 41.0373C33.6516 37.6989 34.2169 33.5695 36.8144 31.0122C39.347 28.4684 43.0029 27.4888 46.4788 27.1382V27.1385Z" fill="#8CC84B"/>
</g>
<defs>
<clipPath id="clip0">
<rect width="81" height="89" fill="white"/>
</clipPath>
</defs>
</svg>
