<svg width="93" height="93" viewBox="0 0 93 93" fill="none" xmlns="http://www.w3.org/2000/svg">
<path d="M46.1019 0.0263672C22.5518 0.0263672 24.0223 10.2801 24.0223 10.2801L24.0484 20.9032H46.5218V24.0926H15.1223C15.1223 24.0926 0.0526733 22.3767 0.0526733 46.2339C0.0526733 70.0919 13.2058 69.2458 13.2058 69.2458H21.0556V58.1748C21.0556 58.1748 20.6324 44.9687 33.9988 44.9687H56.2884C56.2884 44.9687 68.8113 45.1719 68.8113 32.8171V12.3892C68.8113 12.3892 70.7133 0.0263672 46.1019 0.0263672ZM33.7101 7.17023C34.2411 7.16975 34.7671 7.27442 35.2578 7.47824C35.7485 7.68206 36.1944 7.98104 36.5699 8.35807C36.9454 8.73509 37.2432 9.18276 37.4462 9.67546C37.6492 10.1682 37.7535 10.6962 37.753 11.2294C37.7535 11.7626 37.6492 12.2907 37.4462 12.7834C37.2432 13.2761 36.9454 13.7237 36.5699 14.1008C36.1944 14.4778 35.7485 14.7768 35.2578 14.9806C34.7671 15.1844 34.2411 15.2891 33.7101 15.2886C33.179 15.2891 32.6531 15.1844 32.1623 14.9806C31.6716 14.7768 31.2257 14.4778 30.8502 14.1008C30.4747 13.7237 30.1769 13.2761 29.9739 12.7834C29.7709 12.2907 29.6666 11.7626 29.6671 11.2294C29.6666 10.6962 29.7709 10.1682 29.9739 9.67546C30.1769 9.18276 30.4747 8.73509 30.8502 8.35807C31.2257 7.98104 31.6716 7.68206 32.1623 7.47824C32.6531 7.27442 33.179 7.16975 33.7101 7.17023Z" fill="url(#paint0_linear)"/>
<path d="M46.7706 92.6814C70.3207 92.6814 68.8503 82.4277 68.8503 82.4277L68.8241 71.8049H46.3504V68.6155H77.7498C77.7498 68.6155 92.8195 70.3315 92.8195 46.4735C92.8195 22.6158 79.6663 23.462 79.6663 23.462H71.8165V34.5326C71.8165 34.5326 72.2397 47.7386 58.8733 47.7386H36.5837C36.5837 47.7386 24.0608 47.5355 24.0608 59.8906V80.3189C24.0608 80.3189 22.1592 92.6814 46.7703 92.6814H46.7706ZM59.1625 85.5382C58.6314 85.5387 58.1055 85.4341 57.6147 85.2302C57.124 85.0264 56.6781 84.7274 56.3026 84.3504C55.9271 83.9734 55.6293 83.5257 55.4263 83.033C55.2233 82.5403 55.119 82.0123 55.1195 81.4791C55.119 80.9458 55.2232 80.4177 55.4262 79.925C55.6292 79.4323 55.9269 78.9845 56.3025 78.6075C56.678 78.2304 57.1239 77.9314 57.6146 77.7276C58.1054 77.5237 58.6314 77.419 59.1625 77.4195C59.6935 77.419 60.2195 77.5237 60.7102 77.7275C61.2009 77.9313 61.6468 78.2303 62.0223 78.6073C62.3978 78.9844 62.6956 79.432 62.8986 79.9247C63.1016 80.4174 63.2059 80.9455 63.2054 81.4787C63.2059 82.0119 63.1016 82.5399 62.8986 83.0326C62.6956 83.5253 62.3978 83.973 62.0223 84.35C61.6468 84.7271 61.2009 85.026 60.7102 85.2299C60.2195 85.4337 59.6935 85.5384 59.1625 85.5379V85.5382Z" fill="url(#paint1_linear)"/>
<defs>
<linearGradient id="paint0_linear" x1="8.96753" y1="8.36014" x2="55.1224" y2="53.8717" gradientUnits="userSpaceOnUse">
<stop stop-color="#387EB8"/>
<stop offset="1" stop-color="#366994"/>
</linearGradient>
<linearGradient id="paint1_linear" x1="37.1854" y1="37.7037" x2="86.7412" y2="84.3629" gradientUnits="userSpaceOnUse">
<stop stop-color="#FFE052"/>
<stop offset="1" stop-color="#FFC331"/>
</linearGradient>
</defs>
</svg>
