<svg width="120" height="108" viewBox="0 0 120 108" fill="none" xmlns="http://www.w3.org/2000/svg">
<path d="M0.353455 53.8826C0.353455 62.9053 9.14825 71.3279 23.0133 76.0757C20.2445 90.0392 22.5174 101.294 30.108 105.679C37.91 110.187 49.5336 107.067 60.5661 97.4057C71.3202 106.677 82.1887 110.325 89.7727 105.927C97.5677 101.407 99.9381 89.3888 97.0929 74.9891C111.534 70.2061 119.613 63.0241 119.613 53.8826C119.613 45.0694 110.802 37.445 97.1234 32.7278C100.187 17.7331 97.5911 6.75141 89.686 2.18489C82.0649 -2.21776 71.0699 1.61953 60.1579 11.1329C48.8052 1.03539 37.9189 -2.0473 30.0222 2.5319C22.4082 6.94722 20.2356 18.407 23.0133 32.6287C9.61604 37.3079 0.353455 45.105 0.353455 53.8826Z" fill="white"/>
<path d="M94.2266 37.4121C93.0993 37.0247 91.9624 36.6658 90.817 36.3358C91.007 35.5626 91.1826 34.786 91.3439 34.0063C93.9247 21.4558 92.2373 11.3451 86.4747 8.01682C80.9498 4.82472 71.9136 8.153 62.7874 16.1088C61.8881 16.8946 61.0088 17.703 60.1503 18.5332C59.5754 17.9811 58.9903 17.4398 58.3954 16.9094C48.831 8.40187 39.244 4.81721 33.4875 8.15535C27.9678 11.3564 26.3328 20.8618 28.6563 32.7559C28.8875 33.9337 29.1485 35.1055 29.4391 36.2701C28.0826 36.6561 26.7725 37.0674 25.5191 37.505C14.3061 41.4212 7.14487 47.5594 7.14487 53.9257C7.14487 60.5015 14.8321 67.097 26.5119 71.0959C27.4589 71.4186 28.4139 71.7177 29.3758 71.9927C29.0633 73.2474 28.7859 74.5105 28.5438 75.7807C26.3286 87.4682 28.0587 96.7482 33.5639 99.9295C39.2501 103.214 48.7935 99.8379 58.0865 91.7004C58.821 91.0571 59.5583 90.3748 60.2966 89.6596C61.2265 90.5584 62.1812 91.4311 63.1596 92.2765C72.1611 100.036 81.051 103.17 86.5516 99.9797C92.2326 96.6853 94.0785 86.7159 91.6814 74.5866C91.4986 73.6601 91.2853 72.714 91.0462 71.7504C91.7165 71.5523 92.3742 71.3475 93.0159 71.1344C105.158 67.1046 113.057 60.5893 113.057 53.9257C113.057 47.5364 105.665 41.3569 94.2266 37.4121Z" fill="#53C1DE"/>
<path d="M91.5927 66.8322C91.0138 67.0243 90.4195 67.2097 89.8139 67.3896C88.4733 63.1386 86.664 58.6181 84.4507 53.9483C86.5632 49.3888 88.3022 44.9265 89.6053 40.7028C90.6885 41.0174 91.7403 41.3484 92.7537 41.6983C102.555 45.0777 108.533 50.0753 108.533 53.9257C108.533 58.0274 102.076 63.3523 91.5932 66.8322H91.5927ZM87.2429 75.467C88.3027 80.8304 88.4541 85.6796 87.7519 89.4704C87.121 92.8766 85.8526 95.1474 84.2843 96.057C80.9464 97.9925 73.8081 95.4766 66.1106 88.8407C65.228 88.08 64.3388 87.2677 63.4473 86.4084C66.4317 83.1383 69.4143 79.3367 72.3251 75.1153C77.4455 74.6603 82.2828 73.9161 86.6696 72.9004C86.8852 73.7738 87.0774 74.6298 87.2429 75.467ZM43.2525 95.7227C39.9916 96.8764 37.3944 96.9092 35.8246 96.0025C32.4835 94.0726 31.0951 86.6206 32.9892 76.6259C33.2145 75.4448 33.4724 74.2701 33.7626 73.1032C38.1007 74.0644 42.9029 74.7561 48.0355 75.1731C50.9655 79.3038 54.0343 83.1007 57.127 86.4257C56.4697 87.0627 55.7969 87.6833 55.1091 88.2871C50.9997 91.8858 46.8819 94.4384 43.253 95.7227H43.2525ZM27.9752 66.8068C22.8108 65.0385 18.5458 62.7404 15.6223 60.2329C12.9955 57.979 11.669 55.7415 11.669 53.9257C11.669 50.0626 17.419 45.1345 27.0087 41.7851C28.2124 41.3666 29.428 40.9834 30.654 40.6361C31.9796 44.9547 33.7181 49.47 35.8161 54.0361C33.6909 58.6702 31.9276 63.2574 30.5898 67.6267C29.7117 67.3749 28.8399 67.1016 27.9752 66.8068ZM33.0966 31.8853C31.1059 21.6943 32.4277 14.0071 35.7543 12.0781C39.2979 10.0233 47.1327 12.9534 55.3908 20.2988C55.9186 20.7683 56.4487 21.26 56.9798 21.7685C53.903 25.0785 50.8624 28.8467 47.9577 32.9536C42.9765 33.4161 38.2081 34.1589 33.8245 35.1539C33.5545 34.0705 33.3118 32.9805 33.0966 31.8848V31.8853ZM78.7823 43.1863C77.7469 41.3947 76.6731 39.6256 75.5617 37.8802C78.9412 38.3075 82.1787 38.8757 85.2189 39.5711C84.3063 42.5017 83.1687 45.5661 81.829 48.7075C80.8503 46.8469 79.8345 45.0062 78.7823 43.1863ZM60.1517 25.0076C62.2385 27.2723 64.3285 29.8014 66.3844 32.545C62.2141 32.3476 58.0368 32.3467 53.8665 32.5422C55.9242 29.8239 58.0321 27.2986 60.1517 25.0076ZM41.4015 43.2173C40.3625 45.0227 39.3657 46.8522 38.412 48.7042C37.0944 45.5736 35.9671 42.4956 35.0465 39.5232C38.0684 38.8457 41.2909 38.292 44.6484 37.8718C43.5245 39.6279 42.4419 41.4102 41.4015 43.2173ZM44.745 70.3032C41.2764 69.9154 38.0051 69.3899 34.9841 68.7311C35.9193 65.7062 37.0714 62.562 38.4171 59.3642C39.3749 61.2176 40.3761 63.0482 41.4198 64.8544C42.4848 66.6969 43.5935 68.5137 44.745 70.3032ZM60.2768 83.1641C58.1324 80.8459 55.9936 78.2821 53.9044 75.5243C55.9322 75.6041 57.9997 75.6445 60.1011 75.6445C62.26 75.6445 64.3942 75.5962 66.4945 75.5023C64.4321 78.3103 62.3496 80.8778 60.2768 83.1641ZM81.8722 59.2013C83.2877 62.4338 84.4811 65.5611 85.4289 68.5348C82.3578 69.2368 79.0424 69.8022 75.549 70.222C76.6685 68.4441 77.7526 66.644 78.8006 64.8229C79.866 62.9721 80.8901 61.0978 81.8722 59.2013ZM74.8811 62.5587C73.2767 65.3507 71.5821 68.0897 69.8 70.7714C66.6576 70.9963 63.4103 71.1123 60.1011 71.1123C56.8054 71.1123 53.5993 71.0095 50.5118 70.8089C48.6835 68.1335 46.9568 65.3898 45.3356 62.5836C43.7219 59.7923 42.2146 56.9406 40.817 54.0347C42.2111 51.1279 43.7138 48.2747 45.322 45.4811V45.482C46.9297 42.6878 48.6427 39.9558 50.4574 37.2919C53.6073 37.0533 56.8368 36.9284 60.1015 36.9284C63.3808 36.9284 66.6145 37.0543 69.7635 37.2947C71.5598 39.9545 73.2619 42.677 74.8665 45.4571C76.4802 48.2445 78.003 51.0838 79.4324 53.9703C78.0177 56.8863 76.4998 59.7509 74.8815 62.5587H74.8811ZM84.2149 11.9433C87.7613 13.9925 89.1408 22.2555 86.9124 33.0916C86.7664 33.7975 86.6076 34.5007 86.4362 35.2009C82.0423 34.1852 77.2706 33.4292 72.2749 32.9597C69.3646 28.8082 66.3492 25.0334 63.3222 21.7662C64.1154 21.0001 64.9275 20.2539 65.7577 19.5282C73.577 12.7111 80.885 10.0195 84.2149 11.9433Z" fill="white"/>
<path d="M60.1011 44.4514C65.3246 44.4514 69.5587 48.6935 69.5587 53.9258C69.5587 59.1587 65.3246 63.4007 60.1011 63.4007C54.878 63.4007 50.6435 59.1587 50.6435 53.9258C50.6435 48.6935 54.878 44.4514 60.1011 44.4514Z" fill="#53C1DE"/>
</svg>
