<svg width="122" height="92" viewBox="0 0 122 92" fill="none" xmlns="http://www.w3.org/2000/svg">
<g clip-path="url(#clip0)">
<path d="M104.987 52.8521C100.721 52.8763 97.0281 53.9062 93.9305 55.4398C92.7867 53.1638 91.643 51.175 91.4526 49.6898C91.2381 47.9648 90.976 46.9104 91.2381 44.8502C91.5 42.7896 92.6914 39.8666 92.6914 39.6271C92.6673 39.4114 92.4291 38.3573 89.975 38.3333C87.5209 38.3093 85.4 38.8125 85.1617 39.4593C84.9234 40.1062 84.4469 41.5916 84.1371 43.125C83.7082 45.3771 79.2285 53.3552 76.6789 57.5479C75.8449 55.9187 75.1301 54.4812 74.9869 53.331C74.7727 51.6062 74.5103 50.5518 74.7727 48.4916C75.0348 46.431 76.2262 43.5083 76.2262 43.2687C76.2023 43.0531 75.9641 41.9989 73.51 41.975C71.0555 41.951 68.935 42.4541 68.6967 43.101C68.4584 43.7479 68.1963 45.2812 67.6721 46.7666C67.1715 48.2521 61.2145 61.5729 59.6656 65.0469C58.8793 66.8198 58.1885 68.2333 57.6879 69.1916C57.1875 70.15 57.6641 69.2635 57.6164 69.3594C57.1875 70.1739 56.9492 70.6291 56.9492 70.6291V70.6533C56.6156 71.2523 56.2582 71.8271 56.0912 71.8271C55.972 71.8271 55.7338 70.2219 56.1388 68.0179C57.0205 63.3937 59.165 56.1825 59.1414 55.919C59.1414 55.7992 59.5463 54.5291 57.7591 53.8825C56.0197 53.2356 55.4004 54.3138 55.2572 54.3138C55.1142 54.3138 54.9951 54.6971 54.9951 54.6971C54.9951 54.6971 56.9252 46.5755 51.3017 46.5755C47.7752 46.5755 42.9142 50.4327 40.5076 53.9546C38.9826 54.7932 35.742 56.5658 32.3107 58.4588C31.0002 59.1775 29.642 59.9442 28.3552 60.639L28.0934 60.351C21.2785 53.0437 8.67345 47.8687 9.19767 38.0458C9.3883 34.476 10.6274 25.0604 33.4073 13.6562C52.0647 4.31247 67.0049 6.87601 69.602 12.5781C73.2953 20.7239 61.6195 35.8656 42.2237 38.0458C34.837 38.8843 30.9527 36.0093 29.976 34.9312C28.9514 33.8052 28.8085 33.7573 28.4272 33.9729C27.8077 34.3083 28.1889 35.3146 28.4272 35.9135C28.9991 37.4229 31.3819 40.1062 35.4327 41.4479C38.9828 42.6218 47.6565 43.2687 58.1409 39.1958C69.8881 34.6198 79.062 21.9218 76.3694 11.3083C73.6292 0.503097 55.8057 -3.04274 38.9592 2.9708C28.9274 6.56456 18.0617 12.1708 10.2461 19.526C0.953144 28.2468 -0.5242 35.8656 0.0953311 39.0281C2.26393 50.3125 17.7281 57.6677 23.9235 63.1062C23.6137 63.2737 23.3277 63.4414 23.0656 63.5854C19.968 65.1185 8.17306 71.3239 5.21838 77.8883C1.88244 85.3154 5.7426 90.6583 8.31603 91.3771C16.2746 93.6052 24.4238 89.6041 28.832 83.0156C33.2162 76.4271 32.6922 67.8739 30.6668 63.9687L30.5951 63.825L33.0256 62.3875C34.5984 61.4531 36.1473 60.5906 37.5052 59.8477C36.743 61.932 36.1947 64.3997 35.909 67.9935C35.5754 72.2104 37.291 77.6727 39.5547 79.8289C40.5555 80.763 41.7469 80.7872 42.4856 80.7872C45.1067 80.7872 46.2981 78.6068 47.6086 75.9956C49.2289 72.8091 50.6586 69.1195 50.6586 69.1195C50.6586 69.1195 48.8715 79.1102 53.7563 79.1102C55.5434 79.1102 57.3305 76.7862 58.1406 75.5883V75.6122C58.1406 75.6122 58.1883 75.5404 58.2836 75.3727C58.3836 75.224 58.4789 75.0723 58.5695 74.9177V74.8698C59.2844 73.6239 60.8809 70.7729 63.2637 66.0531C66.3373 59.9677 69.2922 52.3489 69.2922 52.3489C69.2922 52.3489 69.5781 54.2177 70.4598 57.2844C70.9838 59.1054 72.1275 61.0937 73.0091 63.0344C72.2943 64.0406 71.8654 64.6158 71.8654 64.6158L71.8892 64.6398C71.3176 65.4065 70.674 66.2213 70.007 67.0356C67.5766 69.9585 64.6695 73.289 64.2883 74.2473C63.8355 75.3731 63.9309 76.2117 64.8125 76.8828C65.4559 77.3619 66.5996 77.4575 67.8148 77.3619C70.007 77.2179 71.532 76.6671 72.2945 76.3315C73.4859 75.9002 74.8441 75.2533 76.1547 74.295C78.5375 72.5223 79.991 70.0067 79.8481 66.6525C79.7766 64.8077 79.1809 62.9869 78.4422 61.2619C78.6566 60.9505 78.8713 60.6388 79.0855 60.3036C82.8504 54.769 85.7574 48.6838 85.7574 48.6838C85.7574 48.6838 86.0434 50.5525 86.925 53.6192C87.3775 55.1765 88.2832 56.8778 89.0934 58.5549C85.5668 61.4538 83.3508 64.808 82.5883 67.0122C81.1824 71.0851 82.2785 72.9299 84.3516 73.3611C85.2806 73.5528 86.6152 73.1215 87.6158 72.6903C88.8548 72.283 90.356 71.588 91.7383 70.558C94.1211 68.7851 96.4086 66.3174 96.2895 62.9872C96.218 61.4538 95.8129 59.9444 95.2648 58.5069C98.2672 57.2611 102.151 56.5424 107.084 57.1413C117.687 58.3872 119.784 65.0476 119.379 67.8267C118.974 70.6061 116.758 72.1392 116.019 72.6184C115.28 73.0736 115.042 73.2416 115.114 73.5767C115.209 74.0801 115.543 74.0559 116.186 73.9603C117.068 73.8163 121.762 71.6843 121.952 66.5574C122.238 59.9679 116.019 52.7804 104.987 52.8521ZM23.2086 80.5719C19.7059 84.4291 14.7735 85.8906 12.6766 84.6448C10.4129 83.3271 11.2943 77.6489 15.6074 73.5521C18.2285 71.0604 21.636 68.7604 23.8758 67.3469C24.3762 67.0354 25.1387 66.5804 26.0442 66.0292C26.1871 65.9336 26.2824 65.8854 26.2824 65.8854C26.4492 65.7896 26.6399 65.6698 26.8305 65.55C28.427 71.3958 26.902 76.5229 23.2086 80.5719ZM48.8238 63.0583C47.6086 66.0531 45.0352 73.7437 43.4863 73.3125C42.1517 72.9531 41.3418 67.1312 43.224 61.3812C44.1771 58.482 46.2025 55.0323 47.3939 53.6904C49.3242 51.5341 51.4209 50.8154 51.9453 51.7018C52.5648 52.8521 49.5863 61.1896 48.8238 63.0583ZM69.9594 73.2167C69.4352 73.4804 68.9586 73.6719 68.7441 73.5283C68.5773 73.4325 68.9584 73.0731 68.9584 73.0731C68.9584 73.0731 71.6033 70.2221 72.6517 68.9044C73.2474 68.138 73.9623 67.2515 74.7248 66.245V66.5325C74.725 69.9823 71.4367 72.2823 69.9594 73.2167ZM86.2576 69.4791C85.8763 69.1917 85.9242 68.3052 87.2107 65.526C87.7113 64.4239 88.8548 62.5791 90.8326 60.8302C91.0709 61.5489 91.2141 62.2435 91.19 62.8906C91.1664 67.2031 88.1164 68.8083 86.2576 69.4791Z" fill="#CF649A"/>
</g>
<defs>
<clipPath id="clip0">
<rect width="122" height="92" fill="white"/>
</clipPath>
</defs>
</svg>
